<svg style="width:100%;margin-bottom:20px;flex:0 0 130px" class="jsx-2263963463 artboard"><svg viewBox="-626.081 -280 1252.162 380" style="width:229px;height:69.4958px;max-height:100%" xmlns="http://www.w3.org/2000/svg" xmlns:xlink="http://www.w3.org/1999/xlink" class="jsx-2263963463 artboard-inner"><g fill="#FFF"><path d="M-604.619 83.515c-1.14 0-1.71-.57-1.71-1.711V58.32c0-1.14.57-1.71 1.71-1.71h17.107c3.525 0 6.066.674 7.62 2.021 1.556 1.348 2.334 3.63 2.334 6.843v9.02c0 3.215-.752 5.522-2.255 6.921-1.504 1.4-3.966 2.1-7.388 2.1zm0-42.924c-1.14 0-1.71-.57-1.71-1.71V18.195c0-1.14.57-1.71 1.71-1.71h16.019c3.317 0 5.728.7 7.231 2.099 1.504 1.4 2.255 3.706 2.255 6.92v6.066c0 3.214-.777 5.52-2.332 6.92-1.556 1.4-3.992 2.1-7.31 2.1zm-21.462 56.143c0 2.177 1.089 3.266 3.266 3.266h38.88c8.087 0 14.36-2.177 18.818-6.532 4.459-4.354 6.688-10.575 6.688-18.662v-9.332c0-5.08-1.244-8.994-3.733-11.741-2.488-2.748-5.806-4.433-9.953-5.055 8.19-2.592 12.286-8.294 12.286-17.107v-6.377c0-8.087-2.23-14.308-6.687-18.662C-570.975 2.177-577.3 0-585.49 0h-37.325c-2.177 0-3.266 1.089-3.266 3.266zM-530.762 100c1.037 0 1.789-.233 2.255-.7.467-.466.804-1.322 1.011-2.566l4.355-17.107h30.327l4.354 17.107c.207 1.244.518 2.1.933 2.566.415.467 1.193.7 2.333.7h14.93c1.866 0 2.488-1.089 1.866-3.266L-492.97 3.266C-493.488 1.089-495.044 0-497.636 0h-20.684c-2.385 0-3.94 1.089-4.666 3.266l-24.572 93.468c-.622 2.177 0 3.266 1.866 3.266zm22.55-81.182h.623l11.198 44.946h-23.018zM-414.914 100c8.087 0 14.386-2.203 18.896-6.61 4.51-4.406 6.765-10.653 6.765-18.74v-7.31c0-2.28-1.14-3.42-3.421-3.42h-13.064c-2.177 0-3.266 1.14-3.266 3.42v6.377c0 3.318-.7 5.676-2.1 7.076-1.399 1.4-3.758 2.1-7.076 2.1h-10.575c-3.214 0-5.521-.7-6.92-2.1-1.4-1.4-2.1-3.758-2.1-7.076V26.283c0-3.318.7-5.676 2.1-7.076 1.399-1.4 3.706-2.1 6.92-2.1h10.575c3.318 0 5.677.7 7.077 2.1 1.4 1.4 2.1 3.758 2.1 7.076v6.376c0 2.281 1.088 3.422 3.265 3.422h13.064c2.28 0 3.421-1.14 3.421-3.422v-7.31c0-8.086-2.255-14.333-6.765-18.74C-400.528 2.204-406.827 0-414.914 0h-16.951c-8.191 0-14.516 2.177-18.974 6.532-4.458 4.354-6.687 10.627-6.687 18.818v49.3c0 8.19 2.229 14.464 6.687 18.818 4.458 4.355 10.783 6.532 18.974 6.532zM-357.233 100c2.178 0 3.266-1.089 3.266-3.266V70.14l9.798-11.509 23.795 38.103c1.244 2.177 3.68 3.266 7.31 3.266h11.352c1.452 0 2.411-.337 2.878-1.01.466-.675.337-1.634-.39-2.878l-32.97-51.633 29.55-40.902c.829-1.037 1.114-1.892.855-2.566-.26-.674-.96-1.011-2.1-1.011h-15.24c-2.697 0-4.718 1.089-6.066 3.266l-23.64 34.681c-2.384 3.94-3.991 7.154-4.82 9.642h-.312V3.266c0-2.177-1.088-3.266-3.266-3.266h-13.219c-2.177 0-3.266 1.089-3.266 3.266v93.468c0 2.177 1.089 3.266 3.266 3.266zM-228.336 82.893c-3.318 0-5.65-.7-6.998-2.1-1.348-1.4-2.022-3.758-2.022-7.076V26.283c0-3.318.674-5.676 2.022-7.076 1.347-1.4 3.68-2.1 6.998-2.1h11.042c3.318 0 5.677.7 7.076 2.1 1.4 1.4 2.1 3.758 2.1 7.076v47.434c0 3.318-.7 5.676-2.1 7.076-1.4 1.4-3.758 2.1-7.076 2.1zM-214.028 100c8.19 0 14.515-2.177 18.974-6.532 4.458-4.354 6.687-10.627 6.687-18.818v-49.3c0-8.19-2.23-14.464-6.687-18.818C-199.513 2.177-205.837 0-214.028 0h-17.418c-8.191 0-14.516 2.177-18.974 6.532-4.458 4.354-6.687 10.627-6.687 18.818v49.3c0 8.19 2.229 14.464 6.687 18.818 4.458 4.355 10.783 6.532 18.974 6.532zM-154.634 100c2.177 0 3.266-1.089 3.266-3.266V63.608c0-1.14.622-1.71 1.866-1.71h26.594c2.177 0 3.266-1.141 3.266-3.422v-10.42c0-2.177-1.089-3.266-3.266-3.266h-26.594c-1.244 0-1.866-.622-1.866-1.866V18.818c0-1.14.622-1.71 1.866-1.71h31.26c2.073 0 3.11-1.09 3.11-3.267V3.266c0-2.177-1.037-3.266-3.11-3.266h-49.611c-2.178 0-3.266 1.089-3.266 3.266v93.468c0 2.177 1.088 3.266 3.266 3.266zM-33.05 100c2.178 0 3.267-1.089 3.267-3.266V63.453L-1.323 3.42c.519-1.036.545-1.866.078-2.488C-1.712.311-2.463 0-3.5 0h-16.485c-1.763 0-3.007 1.089-3.733 3.266l-15.24 37.792h-1.09L-55.6 3.266C-56.43 1.089-57.673 0-59.332 0h-16.485c-.933 0-1.633.337-2.1 1.01-.466.675-.492 1.478-.078 2.411l28.46 60.032v33.281c0 2.177 1.09 3.266 3.267 3.266zM36.454 82.893c-3.318 0-5.65-.7-6.999-2.1-1.348-1.4-2.022-3.758-2.022-7.076V26.283c0-3.318.674-5.676 2.022-7.076 1.348-1.4 3.68-2.1 6.999-2.1h11.042c3.317 0 5.676.7 7.076 2.1 1.4 1.4 2.1 3.758 2.1 7.076v47.434c0 3.318-.7 5.676-2.1 7.076-1.4 1.4-3.759 2.1-7.076 2.1zM50.762 100c8.19 0 14.515-2.177 18.973-6.532 4.458-4.354 6.688-10.627 6.688-18.818v-49.3c0-8.19-2.23-14.464-6.688-18.818C65.277 2.177 58.952 0 50.762 0H33.343c-8.19 0-14.515 2.177-18.973 6.532C9.91 10.886 7.682 17.159 7.682 25.35v49.3c0 8.19 2.23 14.464 6.688 18.818C18.828 97.823 25.152 100 33.343 100zM144.837 0c-2.178 0-3.266 1.089-3.266 3.266v70.451c0 3.318-.7 5.676-2.1 7.076-1.4 1.4-3.758 2.1-7.076 2.1h-10.73c-3.215 0-5.522-.7-6.922-2.1-1.4-1.4-2.1-3.758-2.1-7.076V3.266c0-2.177-1.088-3.266-3.265-3.266h-13.22c-2.177 0-3.265 1.089-3.265 3.266V74.65c0 8.19 2.229 14.464 6.687 18.818 4.458 4.355 10.783 6.532 18.974 6.532h17.107c8.087 0 14.386-2.203 18.896-6.61 4.51-4.406 6.765-10.653 6.765-18.74V3.11c0-2.073-1.14-3.11-3.422-3.11zM195.832 100c2.178 0 3.266-1.089 3.266-3.266V64.852c0-1.14.622-1.71 1.867-1.71h10.42l15.552 33.592c.518 1.348 1.192 2.23 2.021 2.644.83.415 2.178.622 4.044.622h12.597c2.696 0 3.577-1.244 2.644-3.733l-16.64-34.68v-.623c9.227-3.836 13.84-11.612 13.84-23.328v-12.13c0-8.088-2.28-14.36-6.842-18.819C234.039 2.23 227.714 0 219.627 0h-37.014c-2.177 0-3.266 1.089-3.266 3.266v93.468c0 2.177 1.089 3.266 3.266 3.266zm4.977-52.722c-1.14 0-1.71-.57-1.71-1.71v-26.75c0-1.14.57-1.71 1.71-1.71h15.241c3.318 0 5.754.725 7.31 2.177 1.555 1.451 2.333 3.784 2.333 6.998v12.13c0 3.111-.778 5.366-2.333 6.766-1.556 1.4-3.992 2.1-7.31 2.1zM312.285 100c2.178 0 3.266-1.089 3.266-3.266V60.342c0-1.14.622-1.71 1.866-1.71h26.284c1.14 0 1.71.57 1.71 1.71v36.392c0 2.177 1.089 3.266 3.266 3.266h13.22c2.177 0 3.265-1.089 3.265-3.266V3.266c0-2.177-1.088-3.266-3.266-3.266h-13.219c-2.177 0-3.266 1.089-3.266 3.266v36.547c0 1.14-.57 1.711-1.71 1.711h-26.284c-1.244 0-1.866-.57-1.866-1.71V3.265c0-2.177-1.088-3.266-3.266-3.266h-13.219c-2.177 0-3.266 1.089-3.266 3.266v93.468c0 2.177 1.089 3.266 3.266 3.266zM394.385 100c1.037 0 1.789-.233 2.255-.7.467-.466.804-1.322 1.011-2.566l4.355-17.107h30.326l4.355 17.107c.207 1.244.518 2.1.933 2.566.415.467 1.192.7 2.333.7h14.93c1.866 0 2.488-1.089 1.866-3.266L432.177 3.266C431.658 1.089 430.103 0 427.51 0h-20.684c-2.385 0-3.94 1.089-4.666 3.266L377.59 96.734c-.622 2.177 0 3.266 1.866 3.266zm22.55-81.182h.623l11.197 44.946h-23.017zM485.35 100c2.177 0 3.266-1.089 3.266-3.266V39.036h.622l31.104 57.854c1.037 2.073 2.696 3.11 4.977 3.11h11.353c2.177 0 3.266-1.089 3.266-3.266V3.266c0-2.177-1.089-3.266-3.266-3.266h-12.908c-2.178 0-3.266 1.089-3.266 3.266V61.12h-.622L488.46 2.177C487.735.726 486.283 0 484.106 0h-11.664c-2.178 0-3.266 1.089-3.266 3.266v93.468c0 2.177 1.088 3.266 3.266 3.266zM580.203 82.893c-1.14 0-1.711-.57-1.711-1.711V18.818c0-1.14.57-1.71 1.71-1.71h16.952c3.318 0 5.677.7 7.077 2.099 1.4 1.4 2.1 3.758 2.1 7.076v47.434c0 3.318-.7 5.676-2.1 7.076-1.4 1.4-3.759 2.1-7.077 2.1zM558.74 96.734c0 2.177 1.088 3.266 3.266 3.266h38.413c8.087 0 14.386-2.203 18.896-6.61 4.51-4.406 6.765-10.653 6.765-18.74v-49.3c0-8.087-2.255-14.334-6.765-18.74C614.806 2.203 608.507 0 600.42 0h-38.413c-2.178 0-3.266 1.089-3.266 3.266z"/></g><g fill="#FFF"><path d="M-73.043-94.155a4.244 4.244 0 11-2.297-8.171c3.303-.93 6.97-2.326 11.274-4.278a67.827 67.827 0 014.643-1.762V-280l-97.623 35.734v214.262l97.623-35.718v-34.006c0-.153-.683.64-1.146.849-4.694 2.13-8.756 3.68-12.474 4.724zm-51.94-86.66c-2.296.73-4.529 1.481-6.651 2.19-1.906.641-3.731 1.252-5.442 1.8a4.257 4.257 0 01-5.335-2.755 4.253 4.253 0 012.755-5.335c1.672-.53 3.455-1.133 5.327-1.757 2.16-.722 4.435-1.486 6.778-2.229a4.244 4.244 0 112.568 8.086zm15.157-8.328a4.244 4.244 0 013.892-4.57c5.183-.417 10.094-.026 14.202 1.238a4.249 4.249 0 01-2.496 8.116c-3.073-.947-6.943-1.223-11.027-.891a4.232 4.232 0 01-4.571-3.893zm18.62 91.456a4.244 4.244 0 01-6.005.174c-3.252-3.069-5.565-7.56-6.872-13.353a4.249 4.249 0 018.28-1.872c.93 4.117 2.416 7.165 4.42 9.05a4.244 4.244 0 01.178 6.001zm6.49-42.521l-.997 1.473c-2.105 3.094-4.096 6.01-5.815 8.947a4.244 4.244 0 01-5.802 1.524 4.236 4.236 0 01-1.524-5.802c1.863-3.2 4.032-6.38 6.125-9.453l.993-1.46a4.244 4.244 0 117.02 4.771zm5.221-16.986a4.244 4.244 0 01-3.064-5.162c.428-1.676.64-3.31.64-4.868 0-1.813-.28-3.544-.857-5.297a4.253 4.253 0 018.069-2.653 25.442 25.442 0 011.282 7.95c0 2.266-.306 4.614-.909 6.97a4.244 4.244 0 01-5.16 3.06zm143.162-87.072v123.21c0 .572 1.66 1.098 2.42 1.68a4.228 4.228 0 01.764 5.942c-.773 1.023-3.184 1.545-3.184 1.626v81.804l93.379-35.718V-280l-93.379 35.734zM95.004-94.12a4.249 4.249 0 01-5.819 1.472 166.808 166.808 0 01-10.925-7.194 4.24 4.24 0 01-1.006-5.917 4.232 4.232 0 015.917-1.006 154.643 154.643 0 0010.36 6.821 4.256 4.256 0 011.473 5.824zm4.563-78.468a4.244 4.244 0 01-3.65-6.41l10.615-17.907-22.237-9.478a4.244 4.244 0 113.332-7.805l23.269 9.919 10.208-17.224a4.245 4.245 0 117.304 4.325l-9.635 16.252 16.758 7.148a4.244 4.244 0 11-3.337 7.805l-17.792-7.584-11.189 18.875a4.206 4.206 0 01-3.646 2.084zm25.021 88.145c-2.572.73-5.174 1.201-8.094 1.095a35.102 35.102 0 01-6.447-.628 4.244 4.244 0 011.574-8.34c1.707.322 3.252.428 4.928.48a21.1 21.1 0 005.726-.773 4.244 4.244 0 012.313 8.166zm2.106-76.71a4.244 4.244 0 01-5.866-1.282 186.914 186.914 0 00-7.084-10.272 4.242 4.242 0 116.82-5.047 196.592 196.592 0 017.407 10.735 4.249 4.249 0 01-1.277 5.865zm4.223 16.778a4.249 4.249 0 017.682-3.616 112.606 112.606 0 014.954 12.287 4.244 4.244 0 01-8.056 2.67 103.561 103.561 0 00-4.58-11.341zM143.62-99.38a4.244 4.244 0 11-7.594-3.786c1.532-3.082 2.415-6.643 2.619-10.59a4.246 4.246 0 118.48.441c-.263 5.115-1.447 9.809-3.505 13.935zm-94.253-26.588c.534-.76 1.566-1.218 1.566-1.498v-116.8L-46.69-280v166.248c0-1.002 2.72-1.897 3.714-2.45 2.495-1.387 5.89-2.809 8.412-4.235l3.986-2.004c2.046-1.15 4.851-.424 5.997 1.622s.535 4.63-1.507 5.78l-3.489 1.996c-2.542 1.434-5.046 2.865-7.559 4.261a4.147 4.147 0 01-2.042.535c-1.494 0-4.677-.79-5.45-2.182-.182-.322-2.062-1.838-2.062-2.181v46.893L50.934-30v-89.261c0-.255-.45-.54-.807-.794-1.918-1.346-2.11-3.994-.76-5.913zM3.833-129.97a132.852 132.852 0 00-11.29 5.004 4.24 4.24 0 01-5.68-1.936 4.244 4.244 0 011.936-5.683 143.659 143.659 0 0112.003-5.318 4.27 4.27 0 015.484 2.449 4.253 4.253 0 01-2.453 5.484zm35.203-2.666a4.244 4.244 0 01-5.598 2.16c-4.024-1.782-7.585-2.813-10.883-3.145a4.244 4.244 0 01-3.799-4.652 4.278 4.278 0 014.652-3.798c4.207.428 8.612 1.68 13.472 3.832a4.25 4.25 0 012.156 5.603zm-94.146 26.834v6.078a4.206 4.206 0 00.942-4.767 4.3 4.3 0 00-.942-1.311zm8.42-6.808v-1.142 1.142z"/><path d="M120.564-177.755a4.242 4.242 0 10-6.82 5.047 186.914 186.914 0 017.084 10.272 4.246 4.246 0 107.147-4.584 198.306 198.306 0 00-7.41-10.735z"/></g></svg></svg>