<svg viewBox="-17.325 -17.325 35 35" xmlns="http://www.w3.org/2000/svg" class="jsx-2263963463 artboard-inner"><g fill="#FFF"><path d="M-4.551 3.954a.27.27 0 11-.146-.52c.21-.06.443-.148.718-.273a4.319 4.319 0 01.295-.112V-7.88L-9.9-5.604V8.039l6.216-2.275V3.6c0-.01-.043.04-.073.054a5.611 5.611 0 01-.794.3zm-3.307-5.518c-.147.046-.289.094-.424.14l-.346.114a.271.271 0 01-.34-.176.27.27 0 01.175-.34c.107-.033.22-.071.34-.111.137-.046.282-.095.431-.142a.27.27 0 11.164.515zm.965-.53a.27.27 0 01.248-.292c.33-.026.642-.001.904.08a.27.27 0 01-.159.516 1.927 1.927 0 00-.702-.057.27.27 0 01-.291-.247zm1.185 5.823a.27.27 0 01-.382.011c-.207-.195-.354-.481-.438-.85A.27.27 0 01-6 2.77c.059.263.154.457.281.577a.27.27 0 01.011.382zm.414-2.708l-.064.094c-.134.197-.26.383-.37.57a.27.27 0 01-.37.097.27.27 0 01-.097-.37c.12-.203.257-.406.39-.601l.064-.093a.27.27 0 11.447.303zm.332-1.081a.27.27 0 01-.195-.329c.027-.107.04-.21.04-.31 0-.115-.017-.225-.054-.337a.27.27 0 01.514-.169c.054.165.082.335.082.506 0 .145-.02.294-.058.444a.27.27 0 01-.329.195zm9.116-5.544V2.24c0 .036.106.07.154.107a.27.27 0 01.049.378c-.05.065-.203.099-.203.104v5.209L10.1 5.764V-7.88L4.154-5.604zm1.995 9.56a.27.27 0 01-.37.094 10.622 10.622 0 01-.696-.458.27.27 0 01-.064-.377.27.27 0 01.377-.064 9.847 9.847 0 00.66.434c.128.077.17.243.093.371zM6.44-1.04a.27.27 0 01-.232-.409l.676-1.14-1.416-.603a.27.27 0 11.212-.497l1.481.631.65-1.096a.27.27 0 11.465.275l-.613 1.035 1.067.455a.27.27 0 11-.212.497l-1.133-.483-.713 1.202a.268.268 0 01-.232.133zm1.593 5.612c-.164.047-.33.077-.515.07a2.235 2.235 0 01-.41-.04.27.27 0 01.1-.531c.108.02.207.027.313.03.127 0 .25-.016.365-.049a.27.27 0 01.147.52zm.134-4.884a.27.27 0 01-.373-.082 11.902 11.902 0 00-.451-.654.27.27 0 11.434-.321 12.518 12.518 0 01.472.683.27.27 0 01-.082.374zm.27 1.068a.27.27 0 01.488-.23 7.17 7.17 0 01.316.782.27.27 0 01-.513.17 6.594 6.594 0 00-.292-.722zm.808 2.865a.27.27 0 11-.483-.24c.097-.197.153-.424.166-.675a.27.27 0 11.54.028 2.233 2.233 0 01-.223.887zM3.244 1.928c.034-.048.1-.077.1-.095v-7.437L-2.874-7.88V2.706c0-.064.173-.12.237-.156.158-.088.375-.179.535-.27l.254-.127c.13-.073.309-.027.382.103s.034.295-.096.368l-.222.127c-.162.092-.322.183-.482.272a.264.264 0 01-.13.034c-.095 0-.297-.05-.347-.14-.011-.02-.131-.116-.131-.138v2.986l6.216 2.274V2.355c0-.016-.028-.034-.051-.05-.122-.086-.134-.255-.048-.377zm-2.9-.255a8.46 8.46 0 00-.719.319.27.27 0 01-.361-.123.27.27 0 01.123-.362 9.148 9.148 0 01.764-.339.272.272 0 01.35.156.27.27 0 01-.157.35zm2.242-.17a.27.27 0 01-.357.138 2.285 2.285 0 00-.693-.2.27.27 0 01-.242-.296.272.272 0 01.297-.242c.267.027.548.107.857.244a.27.27 0 01.138.357zm-5.995 1.71v.386a.268.268 0 00.06-.303.274.274 0 00-.06-.084zm.536-.434v-.073.073z"/><path d="M7.777-1.37a.27.27 0 10-.434.322 11.902 11.902 0 01.45.654.27.27 0 10.456-.292 12.627 12.627 0 00-.472-.683z"/></g></svg>