<svg viewBox="-293.521 -99 1545.682 200" style="width:338px;height:43.7347px;max-height:100%" xmlns="http://www.w3.org/2000/svg" class="jsx-2263963463 artboard-inner"><g fill="#FFF"><path d="M21.462 41.515c-1.14 0-1.71-.57-1.71-1.711V16.32c0-1.14.57-1.71 1.71-1.71h17.107c3.525 0 6.066.674 7.62 2.021 1.556 1.348 2.334 3.63 2.334 6.843v9.02c0 3.215-.752 5.522-2.256 6.921-1.503 1.4-3.965 2.1-7.387 2.1zm0-42.924c-1.14 0-1.71-.57-1.71-1.71v-20.685c0-1.14.57-1.71 1.71-1.71H37.48c3.317 0 5.728.7 7.231 2.099 1.504 1.4 2.255 3.706 2.255 6.92v6.066c0 3.214-.777 5.52-2.332 6.92-1.556 1.4-3.992 2.1-7.31 2.1zM0 54.734C0 56.911 1.089 58 3.266 58h38.88c8.087 0 14.36-2.177 18.818-6.532 4.458-4.354 6.688-10.575 6.688-18.662v-9.332c0-5.08-1.245-8.994-3.733-11.741-2.488-2.748-5.806-4.433-9.953-5.055 8.19-2.592 12.286-8.294 12.286-17.107v-6.377c0-8.087-2.23-14.308-6.687-18.662C55.106-39.823 48.782-42 40.59-42H3.266C1.089-42 0-40.911 0-38.734zM95.32 58c1.036 0 1.788-.233 2.254-.7.467-.466.804-1.322 1.011-2.566l4.355-17.107h30.326l4.355 17.107c.207 1.244.518 2.1.933 2.566.415.467 1.192.7 2.333.7h14.93c1.866 0 2.488-1.089 1.866-3.266l-24.572-93.468c-.519-2.177-2.074-3.266-4.666-3.266h-20.684c-2.385 0-3.94 1.089-4.666 3.266L78.523 54.734c-.622 2.177 0 3.266 1.866 3.266zm22.55-81.182h.622l11.197 44.946h-23.017zM211.167 58c8.087 0 14.386-2.203 18.896-6.61 4.51-4.406 6.765-10.653 6.765-18.74v-7.31c0-2.28-1.14-3.42-3.421-3.42h-13.064c-2.177 0-3.266 1.14-3.266 3.42v6.377c0 3.318-.7 5.676-2.1 7.076-1.4 1.4-3.758 2.1-7.076 2.1h-10.575c-3.214 0-5.521-.7-6.92-2.1-1.4-1.4-2.1-3.758-2.1-7.076v-47.434c0-3.318.7-5.676 2.1-7.076 1.399-1.4 3.706-2.1 6.92-2.1H207.9c3.318 0 5.677.7 7.077 2.1 1.4 1.4 2.1 3.758 2.1 7.076v6.376c0 2.281 1.088 3.422 3.265 3.422h13.064c2.28 0 3.421-1.14 3.421-3.422v-7.31c0-8.086-2.255-14.333-6.765-18.74-4.51-4.406-10.809-6.609-18.896-6.609h-16.952c-8.19 0-14.515 2.177-18.973 6.532-4.458 4.354-6.687 10.627-6.687 18.818v49.3c0 8.19 2.229 14.464 6.687 18.818C179.7 55.823 186.025 58 194.215 58zM268.848 58c2.178 0 3.266-1.089 3.266-3.266V28.14l9.798-11.509 23.795 38.103c1.244 2.177 3.68 3.266 7.31 3.266h11.352c1.452 0 2.41-.337 2.877-1.01.467-.675.337-1.634-.388-2.878l-32.97-51.633 29.548-40.902c.83-1.037 1.115-1.892.856-2.566-.26-.674-.96-1.011-2.1-1.011h-15.241c-2.696 0-4.718 1.089-6.065 3.266l-23.64 34.681c-2.384 3.94-3.991 7.154-4.82 9.642h-.312v-44.323c0-2.177-1.088-3.266-3.266-3.266H255.63c-2.177 0-3.266 1.089-3.266 3.266v93.468c0 2.177 1.089 3.266 3.266 3.266zM397.745 40.893c-3.318 0-5.65-.7-6.998-2.1-1.348-1.4-2.022-3.758-2.022-7.076v-47.434c0-3.318.674-5.676 2.022-7.076 1.347-1.4 3.68-2.1 6.998-2.1h11.042c3.318 0 5.676.7 7.076 2.1 1.4 1.4 2.1 3.758 2.1 7.076v47.434c0 3.318-.7 5.676-2.1 7.076-1.4 1.4-3.758 2.1-7.076 2.1zM412.053 58c8.19 0 14.515-2.177 18.973-6.532 4.459-4.354 6.688-10.627 6.688-18.818v-49.3c0-8.19-2.23-14.464-6.688-18.818C426.568-39.823 420.244-42 412.053-42h-17.418c-8.191 0-14.516 2.177-18.974 6.532-4.458 4.354-6.687 10.627-6.687 18.818v49.3c0 8.19 2.229 14.464 6.687 18.818C380.119 55.823 386.444 58 394.635 58zM471.447 58c2.177 0 3.266-1.089 3.266-3.266V21.608c0-1.14.622-1.71 1.866-1.71h26.594c2.177 0 3.266-1.141 3.266-3.422V6.056c0-2.177-1.089-3.266-3.266-3.266H476.58c-1.244 0-1.866-.622-1.866-1.866v-24.106c0-1.14.622-1.71 1.866-1.71h31.26c2.073 0 3.11-1.09 3.11-3.267v-10.575c0-2.177-1.037-3.266-3.11-3.266h-49.612c-2.177 0-3.265 1.089-3.265 3.266v93.468c0 2.177 1.088 3.266 3.265 3.266zM593.032 58c2.177 0 3.266-1.089 3.266-3.266V21.453l28.46-60.032c.518-1.036.544-1.866.078-2.488-.467-.622-1.218-.933-2.255-.933h-16.485c-1.763 0-3.007 1.089-3.733 3.266L587.122-.942h-1.089l-15.552-37.792c-.83-2.177-2.073-3.266-3.732-3.266h-16.485c-.934 0-1.633.337-2.1 1.01-.467.675-.492 1.478-.078 2.411l28.46 60.032v33.281c0 2.177 1.09 3.266 3.267 3.266zM662.535 40.893c-3.318 0-5.651-.7-6.999-2.1-1.348-1.4-2.022-3.758-2.022-7.076v-47.434c0-3.318.674-5.676 2.022-7.076 1.348-1.4 3.68-2.1 6.999-2.1h11.042c3.317 0 5.676.7 7.076 2.1 1.4 1.4 2.1 3.758 2.1 7.076v47.434c0 3.318-.7 5.676-2.1 7.076-1.4 1.4-3.759 2.1-7.076 2.1zM676.842 58c8.191 0 14.516-2.177 18.974-6.532 4.458-4.354 6.687-10.627 6.687-18.818v-49.3c0-8.19-2.229-14.464-6.687-18.818C691.358-39.823 685.033-42 676.842-42h-17.418c-8.19 0-14.515 2.177-18.973 6.532-4.459 4.354-6.688 10.627-6.688 18.818v49.3c0 8.19 2.23 14.464 6.688 18.818C644.909 55.823 651.233 58 659.424 58zM770.918-42c-2.178 0-3.266 1.089-3.266 3.266v70.451c0 3.318-.7 5.676-2.1 7.076-1.4 1.4-3.758 2.1-7.076 2.1h-10.731c-3.214 0-5.521-.7-6.92-2.1-1.4-1.4-2.1-3.758-2.1-7.076v-70.451c0-2.177-1.089-3.266-3.266-3.266h-13.22c-2.177 0-3.265 1.089-3.265 3.266V32.65c0 8.19 2.229 14.464 6.687 18.818C730.119 55.823 736.444 58 744.635 58h17.107c8.087 0 14.386-2.203 18.896-6.61 4.51-4.406 6.765-10.653 6.765-18.74v-71.54c0-2.073-1.14-3.11-3.422-3.11zM821.913 58c2.178 0 3.266-1.089 3.266-3.266V22.852c0-1.14.622-1.71 1.867-1.71h10.42l15.552 33.592c.518 1.348 1.192 2.23 2.021 2.644.83.415 2.178.622 4.044.622h12.597c2.696 0 3.577-1.244 2.644-3.733l-16.64-34.68v-.623c9.227-3.836 13.84-11.612 13.84-23.328v-12.13c0-8.088-2.28-14.36-6.842-18.819C860.12-39.77 853.795-42 845.708-42h-37.014c-2.177 0-3.266 1.089-3.266 3.266v93.468c0 2.177 1.089 3.266 3.266 3.266zm4.977-52.722c-1.14 0-1.71-.57-1.71-1.71v-26.75c0-1.14.57-1.71 1.71-1.71h15.241c3.318 0 5.754.725 7.31 2.177 1.555 1.451 2.332 3.784 2.332 6.998v12.13c0 3.111-.777 5.366-2.332 6.766-1.556 1.4-3.992 2.1-7.31 2.1zM938.366 58c2.177 0 3.266-1.089 3.266-3.266V18.342c0-1.14.622-1.71 1.866-1.71h26.283c1.14 0 1.711.57 1.711 1.71v36.392c0 2.177 1.089 3.266 3.266 3.266h13.22c2.177 0 3.265-1.089 3.265-3.266v-93.468c0-2.177-1.088-3.266-3.266-3.266h-13.219c-2.177 0-3.266 1.089-3.266 3.266v36.547c0 1.14-.57 1.711-1.71 1.711h-26.284c-1.244 0-1.866-.57-1.866-1.71v-36.548c0-2.177-1.089-3.266-3.266-3.266h-13.22c-2.176 0-3.265 1.089-3.265 3.266v93.468c0 2.177 1.089 3.266 3.266 3.266zM1020.466 58c1.037 0 1.789-.233 2.255-.7.467-.466.804-1.322 1.011-2.566l4.355-17.107h30.326l4.355 17.107c.207 1.244.518 2.1.933 2.566.415.467 1.192.7 2.333.7h14.93c1.866 0 2.488-1.089 1.866-3.266l-24.572-93.468c-.519-2.177-2.074-3.266-4.666-3.266h-20.684c-2.385 0-3.94 1.089-4.666 3.266l-24.572 93.468c-.622 2.177 0 3.266 1.866 3.266zm22.55-81.182h.623l11.197 44.946h-23.017zM1111.43 58c2.178 0 3.267-1.089 3.267-3.266V-2.964h.622l31.104 57.854c1.037 2.073 2.696 3.11 4.977 3.11h11.353c2.177 0 3.266-1.089 3.266-3.266v-93.468c0-2.177-1.089-3.266-3.266-3.266h-12.909c-2.177 0-3.265 1.089-3.265 3.266V19.12h-.623l-31.415-58.943c-.726-1.451-2.177-2.177-4.354-2.177h-11.664c-2.178 0-3.266 1.089-3.266 3.266v93.468c0 2.177 1.088 3.266 3.266 3.266zM1206.283 40.893c-1.14 0-1.71-.57-1.71-1.711v-62.364c0-1.14.57-1.71 1.71-1.71h16.952c3.318 0 5.677.7 7.076 2.099 1.4 1.4 2.1 3.758 2.1 7.076v47.434c0 3.318-.7 5.676-2.1 7.076-1.4 1.4-3.758 2.1-7.076 2.1zm-21.461 13.841c0 2.177 1.088 3.266 3.266 3.266h38.413c8.087 0 14.386-2.203 18.896-6.61 4.51-4.406 6.765-10.653 6.765-18.74v-49.3c0-8.087-2.255-14.334-6.765-18.74-4.51-4.407-10.809-6.61-18.896-6.61h-38.413c-2.178 0-3.266 1.089-3.266 3.266z"/></g><g fill="#FFF"><path d="M-226.319 49.676a3.396 3.396 0 11-1.837-6.537c2.642-.743 5.576-1.86 9.02-3.423a54.261 54.261 0 013.714-1.409V-99l-78.099 28.587v171.41l78.099-28.574V45.217c0-.122-.547.513-.917.68-3.755 1.704-7.005 2.943-9.98 3.779zm-41.551-69.328c-1.837.584-3.623 1.185-5.321 1.752a320.055 320.055 0 01-4.353 1.44 3.406 3.406 0 01-4.269-2.204 3.402 3.402 0 012.204-4.268c1.338-.425 2.764-.907 4.262-1.406 1.728-.577 3.548-1.188 5.422-1.783a3.396 3.396 0 112.055 6.469zm12.125-6.662a3.396 3.396 0 013.114-3.657c4.146-.333 8.075-.02 11.362.991a3.399 3.399 0 01-1.997 6.493c-2.458-.757-5.555-.978-8.822-.713a3.385 3.385 0 01-3.657-3.114zm14.897 73.165a3.396 3.396 0 01-4.805.139c-2.601-2.455-4.452-6.048-5.498-10.683a3.399 3.399 0 016.625-1.497c.744 3.294 1.932 5.732 3.535 7.24a3.396 3.396 0 01.143 4.8zm5.192-34.017l-.798 1.178c-1.685 2.475-3.277 4.808-4.652 7.158a3.396 3.396 0 01-4.642 1.219 3.389 3.389 0 01-1.22-4.642c1.492-2.56 3.227-5.104 4.9-7.562l.795-1.168a3.396 3.396 0 115.617 3.817zm4.176-13.59a3.396 3.396 0 01-2.451-4.129c.342-1.34.512-2.648.512-3.894 0-1.45-.224-2.836-.686-4.238a3.402 3.402 0 016.455-2.122 20.353 20.353 0 011.026 6.36c0 1.813-.245 3.69-.727 5.575a3.396 3.396 0 01-4.129 2.448zm114.53-69.657v98.567c0 .459 1.327.88 1.935 1.345a3.382 3.382 0 01.612 4.754c-.618.818-2.547 1.236-2.547 1.3v65.444l74.703-28.574V-99l-74.703 28.587zm25.07 120.116a3.399 3.399 0 01-4.656 1.178 133.447 133.447 0 01-8.74-5.755 3.392 3.392 0 01-.805-4.734 3.385 3.385 0 014.734-.805 123.715 123.715 0 008.288 5.457 3.405 3.405 0 011.178 4.659zm3.65-62.774a3.396 3.396 0 01-2.92-5.128l8.492-14.326-17.79-7.582a3.396 3.396 0 112.666-6.244l18.614 7.935L-71-52.196a3.396 3.396 0 115.844 3.46l-7.708 13.003 13.405 5.718a3.396 3.396 0 11-2.668 6.244l-14.235-6.068-8.95 15.1a3.365 3.365 0 01-2.917 1.668zm20.017 70.516c-2.058.584-4.14.96-6.476.876a28.081 28.081 0 01-5.158-.503 3.396 3.396 0 011.26-6.672c1.365.258 2.601.343 3.942.384 1.596 0 3.135-.21 4.581-.618a3.396 3.396 0 011.85 6.533zm1.684-61.369a3.396 3.396 0 01-4.693-1.025 149.531 149.531 0 00-5.667-8.217 3.394 3.394 0 115.457-4.038 157.273 157.273 0 015.925 8.588 3.399 3.399 0 01-1.022 4.692zM-63.151 9.5a3.399 3.399 0 016.146-2.893 90.085 90.085 0 013.963 9.83 3.396 3.396 0 01-6.445 2.136A82.849 82.849 0 00-63.15 9.5zm10.163 35.997a3.396 3.396 0 11-6.074-3.03c1.226-2.464 1.932-5.313 2.095-8.471a3.397 3.397 0 116.784.353c-.21 4.092-1.158 7.847-2.805 11.148zm-75.402-21.27c.428-.608 1.253-.975 1.253-1.199v-93.44L-205.235-99V33.998c0-.801 2.176-1.518 2.97-1.959 1.997-1.11 4.714-2.248 6.73-3.389l3.19-1.602c1.636-.92 3.88-.34 4.797 1.297s.428 3.704-1.205 4.624l-2.791 1.596c-2.034 1.148-4.038 2.292-6.048 3.41a3.317 3.317 0 01-1.633.427c-1.195 0-3.742-.631-4.36-1.745-.146-.258-1.65-1.47-1.65-1.745v37.514L-127.137 101V29.59c0-.203-.36-.43-.645-.634-1.535-1.077-1.688-3.195-.608-4.73zm-36.428-3.202a106.282 106.282 0 00-9.032 4.003 3.392 3.392 0 01-4.543-1.548 3.396 3.396 0 011.548-4.547 114.927 114.927 0 019.603-4.255 3.416 3.416 0 014.387 1.96 3.402 3.402 0 01-1.963 4.387zm28.163-2.133a3.396 3.396 0 01-4.479 1.729c-3.219-1.426-6.067-2.252-8.706-2.516a3.396 3.396 0 01-3.039-3.722 3.423 3.423 0 013.722-3.04c3.365.344 6.89 1.346 10.777 3.067a3.4 3.4 0 011.725 4.482zm-75.317 21.467v4.863a3.365 3.365 0 00.754-3.814 3.44 3.44 0 00-.754-1.049zm6.737-5.446v-.914.914z"/><path d="M-71.432-17.204a3.394 3.394 0 10-5.457 4.038 149.531 149.531 0 015.667 8.217 3.397 3.397 0 105.718-3.667 158.645 158.645 0 00-5.928-8.588z"/></g></svg>